<?xml version="1.0" encoding="utf-8"?>
<!-- Generator: Adobe Illustrator 19.0.0, SVG Export Plug-In . SVG Version: 6.00 Build 0)  -->
<svg version="1.1" id="layer" xmlns="http://www.w3.org/2000/svg" xmlns:xlink="http://www.w3.org/1999/xlink" x="0px" y="0px"
	 viewBox="-153 -46 652 652" style="enable-background:new -153 -46 652 652;" xml:space="preserve">
<style type="text/css">
	.st0{fill:#062F6B;}
</style>
<g>
	<path class="st0" d="M80.9,307.9c0-2-0.1-5.8-0.6-6.8c-0.2-0.4-0.8-0.6-1.6-0.7l-0.8-0.1c-0.2-0.2-0.1-0.7,0.1-0.8
		c1.2,0.1,2.5,0.1,3.7,0.1c1.4,0,2.3,0,3.4-0.1c0.3,0.2,0.2,0.6,0.1,0.8l-0.8,0.1c-0.8,0.1-1.4,0.4-1.6,0.8
		c-0.5,1.1-0.5,4.8-0.5,6.7v3.7c0,2.8-0.5,5.8-2.3,7.8c-1.4,1.5-3.8,2.4-6.2,2.4c-2.3,0-4.5-0.4-6.1-1.8c-1.7-1.4-2.5-3.8-2.5-7.7
		v-7.7c0-3.4-0.1-4-2-4.1l-0.8-0.1c-0.2-0.1-0.1-0.7,0.1-0.8c1.6,0.1,2.7,0.1,4,0.1c1.3,0,2.4,0,4-0.1c0.2,0.1,0.3,0.7,0.1,0.8
		l-0.8,0.1c-1.9,0.2-2,0.7-2,4.1v7.1c0,5.3,1.6,8.7,6.6,8.7c4.7,0,6.5-3.7,6.5-8.7V307.9z"/>
	<path class="st0" d="M123.6,315.7c0,1,0,4.9,0.1,5.7c-0.1,0.2-0.3,0.4-0.6,0.4c-0.4-0.6-1.3-1.7-4.2-4.9l-7.6-8.6
		c-0.9-1-3.1-3.7-3.8-4.4h-0.1c-0.1,0.4-0.2,1.1-0.2,2.1v7.1c0,1.5,0,5.8,0.6,6.8c0.2,0.4,0.8,0.6,1.7,0.6l1,0.1
		c0.2,0.3,0.2,0.6-0.1,0.8c-1.5-0.1-2.6-0.1-3.8-0.1c-1.4,0-2.3,0-3.4,0.1c-0.2-0.2-0.3-0.6-0.1-0.8l0.9-0.1
		c0.8-0.1,1.3-0.3,1.4-0.7c0.5-1.2,0.4-5.2,0.4-6.7v-9.4c0-0.9,0-1.6-0.7-2.4c-0.5-0.5-1.2-0.7-2-0.8l-0.5-0.1
		c-0.2-0.2-0.2-0.7,0.1-0.8c1.4,0.1,3.1,0.1,3.7,0.1c0.5,0,1.1,0,1.5-0.1c0.7,1.7,4.5,6,5.6,7.2l3.2,3.6c2.3,2.5,3.9,4.3,5.4,5.9
		h0.1c0.1-0.2,0.1-0.7,0.1-1.4v-7c0-1.5,0-5.8-0.7-6.8c-0.2-0.3-0.7-0.5-2-0.7l-0.6-0.1c-0.2-0.2-0.2-0.7,0.1-0.8
		c1.5,0.1,2.6,0.1,3.9,0.1c1.4,0,2.3,0,3.4-0.1c0.3,0.2,0.3,0.6,0.1,0.8l-0.5,0.1c-1,0.2-1.7,0.4-1.8,0.7c-0.6,1.2-0.5,5.2-0.5,6.7
		V315.7z"/>
	<path class="st0" d="M147.9,304.6c0-3.5-0.1-4-2-4.2l-0.8-0.1c-0.2-0.1-0.1-0.7,0.1-0.8c1.6,0.1,2.7,0.1,4.1,0.1c1.3,0,2.4,0,4-0.1
		c0.2,0.1,0.3,0.7,0.1,0.8l-0.8,0.1c-1.9,0.2-2,0.7-2,4.2v11.6c0,3.5,0.1,3.9,2,4.1l0.8,0.1c0.2,0.1,0.1,0.7-0.1,0.8
		c-1.6-0.1-2.7-0.1-4-0.1c-1.4,0-2.5,0-4.1,0.1c-0.2-0.1-0.3-0.6-0.1-0.8l0.8-0.1c1.9-0.2,2-0.7,2-4.1V304.6z"/>
	<path class="st0" d="M174.4,303.1c-0.7-1.8-1.2-2.5-2.6-2.7l-0.6-0.1c-0.2-0.2-0.2-0.7,0.1-0.8c1,0.1,2,0.1,3.4,0.1
		c1.4,0,2.6,0,4-0.1c0.2,0.1,0.3,0.6,0.1,0.8l-0.5,0.1c-1.2,0.2-1.5,0.4-1.5,0.6c0.1,0.3,0.6,2.1,1.6,4.6c1.5,3.8,3,7.5,4.6,11.3
		c1-2.2,2.4-5.5,3.1-7.3c0.9-2.2,2.5-5.9,3-7.3c0.3-0.7,0.3-1,0.3-1.3c0-0.2-0.3-0.5-1.5-0.6l-0.6-0.1c-0.2-0.2-0.2-0.7,0.1-0.8
		c0.9,0.1,2.2,0.1,3.4,0.1c1.1,0,2.1,0,3.2-0.1c0.2,0.1,0.2,0.7,0.1,0.8l-1,0.1c-0.8,0.1-1.3,0.5-1.7,1.1c-0.9,1.5-2.2,4.2-3.7,7.5
		l-1.8,4c-1.3,3-2.8,6.8-3.4,8.5c-0.1,0.1-0.2,0.1-0.3,0.1c-0.2,0-0.3,0-0.5-0.1c-0.4-1.4-0.9-3-1.5-4.3L174.4,303.1z"/>
	<path class="st0" d="M213.7,304.6c0-3.4-0.1-3.9-2-4.1l-0.5-0.1c-0.2-0.1-0.1-0.7,0.1-0.8c1.4,0.1,2.5,0.1,3.8,0.1h6.1
		c2.1,0,4,0,4.4-0.1c0.2,0.6,0.4,2.9,0.5,4.4c-0.1,0.2-0.7,0.3-0.8,0.1c-0.5-1.5-0.8-2.7-2.5-3.1c-0.7-0.2-1.7-0.2-3.2-0.2h-2.4
		c-1,0-1,0.1-1,1.3v6.5c0,0.9,0.1,0.9,1.1,0.9h1.9c1.4,0,2.4-0.1,2.8-0.2c0.4-0.1,0.6-0.3,0.8-1.1l0.3-1.3c0.2-0.2,0.7-0.2,0.8,0
		c0,0.8-0.1,2.1-0.1,3.3c0,1.2,0.1,2.4,0.1,3.1c-0.1,0.2-0.7,0.2-0.8,0l-0.3-1.3c-0.1-0.6-0.4-1.1-1-1.2c-0.5-0.1-1.2-0.2-2.5-0.2
		h-1.9c-1,0-1.1,0-1.1,0.9v4.6c0,1.7,0.1,2.8,0.6,3.4c0.4,0.4,1.1,0.7,4,0.7c2.5,0,3.5-0.1,4.2-0.5c0.6-0.3,1.5-1.5,2.3-3.2
		c0.2-0.2,0.7-0.1,0.8,0.2c-0.2,1.1-1,3.7-1.5,4.5c-2.9-0.1-5.8-0.1-8.8-0.1h-2.9c-1.4,0-2.5,0-4.4,0.1c-0.2-0.1-0.3-0.6-0.1-0.8
		l1.1-0.1c1.9-0.2,2-0.7,2-4.1V304.6z"/>
	<path class="st0" d="M249.1,304.6c0-3.1-0.1-3.7-1.4-3.8l-1-0.1c-0.2-0.2-0.2-0.7,0-0.8c1.8-0.2,4.1-0.3,7.3-0.3c2,0,4,0.2,5.5,1
		c1.6,0.8,2.7,2.3,2.7,4.6c0,3.1-2.4,4.8-4.1,5.5c-0.2,0.2,0,0.5,0.2,0.8c2.6,4.2,4.3,6.8,6.6,8.7c0.6,0.5,1.4,0.9,2.3,0.9
		c0.2,0.1,0.2,0.3,0,0.5c-0.3,0.1-0.8,0.2-1.4,0.2c-2.8,0-4.5-0.8-6.8-4.1c-0.9-1.2-2.2-3.5-3.2-4.9c-0.5-0.7-1-1-2.3-1
		c-1.5,0-1.5,0-1.5,0.7v4.1c0,3.4,0.1,3.8,2,4.1l0.7,0.1c0.2,0.2,0.1,0.7-0.1,0.8c-1.5-0.1-2.6-0.1-3.9-0.1c-1.4,0-2.6,0-4.1,0.1
		c-0.2-0.1-0.3-0.6-0.1-0.8l0.8-0.1c1.9-0.2,2-0.7,2-4.1V304.6z M251.8,309.3c0,0.6,0,0.9,0.1,1.1c0.1,0.1,0.6,0.2,2.2,0.2
		c1.2,0,2.4-0.1,3.4-0.9c0.9-0.7,1.6-1.8,1.6-4c0-2.6-1.6-5-5.2-5c-2,0-2.1,0.1-2.1,1V309.3z"/>
	<path class="st0" d="M288.6,321.8c-2.7,0-4.5-0.9-5.1-1.2c-0.4-0.7-0.8-3-0.9-4.6c0.2-0.2,0.7-0.3,0.8-0.1c0.5,1.7,1.8,4.9,5.6,4.9
		c2.7,0,4.1-1.8,4.1-3.8c0-1.4-0.3-3-2.7-4.6l-3.1-2c-1.6-1.1-3.5-2.9-3.5-5.6c0-3.1,2.4-5.6,6.7-5.6c1,0,2.2,0.2,3,0.4
		c0.4,0.1,0.9,0.2,1.1,0.2c0.3,0.8,0.6,2.6,0.6,4c-0.1,0.2-0.7,0.3-0.8,0.1c-0.4-1.6-1.3-3.7-4.4-3.7c-3.2,0-3.9,2.1-3.9,3.6
		c0,1.9,1.6,3.3,2.8,4l2.6,1.6c2.1,1.3,4.1,3.2,4.1,6.3C295.6,319.3,292.9,321.8,288.6,321.8"/>
	<path class="st0" d="M317.8,304.6c0-3.5-0.1-4-2-4.2l-0.8-0.1c-0.2-0.1-0.1-0.7,0.1-0.8c1.6,0.1,2.7,0.1,4.1,0.1
		c1.3,0,2.4,0,4.1-0.1c0.2,0.1,0.3,0.7,0.1,0.8l-0.8,0.1c-1.9,0.2-2,0.7-2,4.2v11.6c0,3.5,0.1,3.9,2,4.1l0.8,0.1
		c0.2,0.1,0.1,0.7-0.1,0.8c-1.6-0.1-2.7-0.1-4.1-0.1c-1.4,0-2.5,0-4.1,0.1c-0.2-0.1-0.3-0.6-0.1-0.8l0.8-0.1c1.9-0.2,2-0.7,2-4.1
		V304.6z"/>
	<path class="st0" d="M354.1,316.3c0,3.4,0.1,3.9,2,4.1l1,0.1c0.2,0.1,0.1,0.7-0.1,0.8c-1.9-0.1-3-0.1-4.3-0.1c-1.3,0-2.5,0-4.5,0.1
		c-0.2-0.1-0.3-0.7,0-0.8l1.2-0.1c1.9-0.2,2-0.7,2-4.1v-14.6c0-1,0-1-1-1h-1.8c-1.4,0-3.2,0.1-4,0.8c-0.8,0.7-1.1,1.4-1.5,2.3
		c-0.3,0.2-0.7,0-0.8-0.2c0.5-1.5,1-3.6,1.2-4.9c0.1-0.1,0.5-0.1,0.6,0c0.2,1,1.3,1,2.8,1h13.2c1.8,0,2.1-0.1,2.5-0.9
		c0.2-0.1,0.5,0,0.6,0.1c-0.4,1.3-0.6,4-0.5,5c-0.1,0.3-0.7,0.3-0.9,0.1c-0.1-0.8-0.3-2-0.8-2.4c-0.8-0.6-2-0.8-3.8-0.8H355
		c-1,0-0.9,0-0.9,1.1V316.3z"/>
	<path class="st0" d="M391.3,316.3c0,3.5,0.2,4,2,4.1l1.3,0.1c0.2,0.2,0.1,0.7-0.1,0.8c-2-0.1-3.1-0.1-4.4-0.1c-1.4,0-2.5,0-4.3,0.1
		c-0.2-0.1-0.3-0.6-0.1-0.8l1-0.1c1.9-0.2,2-0.7,2-4.1v-1.7c0-1.8-0.1-2.2-1-4l-3.9-7.5c-1.1-2.2-1.6-2.3-2.6-2.5l-0.9-0.2
		c-0.2-0.2-0.2-0.7,0.1-0.8c1,0.1,2.2,0.1,3.8,0.1c1.5,0,2.7,0,3.5-0.1c0.3,0.1,0.3,0.6,0.1,0.8l-0.4,0.1c-1.1,0.2-1.4,0.3-1.4,0.6
		c0,0.3,0.9,2.2,1,2.5c1.2,2.4,2.4,5,3.7,7.3c1-1.7,2.1-3.6,3.1-5.5c0.9-1.7,2.1-3.9,2.1-4.3c0-0.2-0.6-0.4-1.4-0.5l-0.6-0.1
		c-0.2-0.2-0.2-0.7,0.1-0.8c1.2,0.1,2.1,0.1,3.1,0.1c1,0,1.9,0,3-0.1c0.3,0.2,0.3,0.6,0.1,0.8l-0.9,0.2c-1.7,0.3-2.7,2.4-4.3,5.2
		l-2.1,3.6c-1.4,2.5-1.5,2.8-1.5,5.3V316.3z"/>
	<path class="st0" d="M-76.1,331.9c2.8-1.5,6.2-3.7,9.8-6.4v-33l-9.8-6.5V331.9z"/>
	<path class="st0" d="M-76.1,263.1l9.8,6.5v-16.7c-3.3-0.2-6.5-0.2-9.8-0.3V263.1z"/>
	<path class="st0" d="M-46.7,254.6c-3.3-0.4-6.5-0.8-9.8-1v22.5l9.8,6.5V254.6z"/>
	<path class="st0" d="M-56.5,299v18c3.3-3.3,6.6-7.1,9.8-11.4v0L-56.5,299z"/>
	<path class="st0" d="M-46.7,305.6C-46.7,305.6-46.7,305.6-46.7,305.6L-46.7,305.6L-46.7,305.6z"/>
	<path class="st0" d="M-36.8,256.1v33.1l0,0c4.3-8.9,7.7-19.2,9.7-31.3l-0.3-0.1C-30.6,257.2-33.7,256.6-36.8,256.1"/>
	<polygon class="st0" points="-66.3,269.6 -66.3,292.5 -56.5,299 -56.5,276.1 	"/>
	<path class="st0" d="M-46.7,282.7v22.9l0,0c3.5-4.8,6.8-10.2,9.8-16.3v-0.1L-46.7,282.7z"/>
	<path class="st0" d="M-36.8,289.3C-36.8,289.3-36.8,289.2-36.8,289.3L-36.8,289.3L-36.8,289.3z"/>
	<path class="st0" d="M-97.7,294c2.9-0.8,5.5-2.4,7.4-4.6c-1.1-0.4-2.3-0.8-3.8-1.1C-95.1,290.6-96.5,292.5-97.7,294"/>
	<path class="st0" d="M-113.3,289.4c2,2.2,4.5,3.8,7.4,4.6c-1.2-1.4-2.6-3.3-3.6-5.7C-110.9,288.6-112.2,289-113.3,289.4"/>
	<path class="st0" d="M-103.2,265.5c-1.1,1.2-2.3,2.8-3.4,4.9c1,0.1,2.2,0.2,3.4,0.3V265.5z"/>
	<path class="st0" d="M-93.1,285.6c1.8,0.4,3.3,0.9,4.5,1.4c1.2-1.9,1.9-4.1,2.1-6.5h-5.7C-92.3,282.4-92.6,284-93.1,285.6"/>
	<path class="st0" d="M-105.9,264.2c-2.9,0.8-5.5,2.4-7.4,4.6c1.1,0.4,2.3,0.8,3.8,1.1C-108.4,267.6-107.1,265.7-105.9,264.2"/>
	<path class="st0" d="M-90.3,268.8c-1.9-2.2-4.5-3.8-7.4-4.6c1.2,1.4,2.6,3.3,3.6,5.7C-92.6,269.6-91.3,269.2-90.3,268.8"/>
	<path class="st0" d="M-92.1,277.7h5.7c-0.2-2.4-1-4.5-2.1-6.5c-1.2,0.5-2.7,1-4.5,1.4C-92.6,274.2-92.3,275.9-92.1,277.7"/>
	<path class="st0" d="M-100.4,292.7c1.1-1.2,2.3-2.8,3.4-4.9c-1.1-0.1-2.2-0.2-3.4-0.3V292.7z"/>
	<path class="st0" d="M-103.2,280.5h-5.4c0.1,1.6,0.4,3.2,0.9,4.5c1.4-0.2,2.9-0.4,4.5-0.4V280.5z"/>
	<path class="st0" d="M-100.4,284.6c1.6,0.1,3.1,0.2,4.5,0.4c0.4-1.4,0.8-2.9,0.9-4.5h-5.4V284.6z"/>
	<path class="st0" d="M-97,270.5c-1-2.1-2.3-3.8-3.4-4.9v5.2C-99.2,270.7-98,270.6-97,270.5"/>
	<path class="st0" d="M-95,277.7c-0.1-1.6-0.4-3.2-0.9-4.5c-1.4,0.2-2.9,0.4-4.5,0.4v4.1H-95z"/>
	<path class="st0" d="M-106.6,287.8c1,2.1,2.3,3.7,3.4,4.9v-5.2C-104.4,287.5-105.5,287.6-106.6,287.8"/>
	<path class="st0" d="M-110.5,272.6c-1.8-0.4-3.3-0.9-4.5-1.4c-1.1,1.9-1.9,4.1-2.1,6.5h5.7C-111.3,275.9-111,274.2-110.5,272.6"/>
	<path class="st0" d="M-103.2,273.6c-1.6-0.1-3.1-0.2-4.5-0.4c-0.5,1.4-0.8,2.9-0.9,4.5h5.4V273.6z"/>
	<path class="st0" d="M-111.4,280.5h-5.7c0.2,2.4,1,4.5,2.1,6.5c1.2-0.5,2.7-1,4.5-1.4C-110.9,284-111.3,282.4-111.4,280.5"/>
</g>
<g>
	<path class="st0" d="M-129.8,258c7.2,44.6,35.1,66.3,49,74v-79.3c-16.4,0.2-32.8,1.9-48.7,5.3L-129.8,258z M-101.8,260.8
		c10.1,0,18.3,8.2,18.3,18.3c0,10.1-8.2,18.3-18.3,18.3c-10.1,0-18.3-8.2-18.3-18.3C-120,269-111.8,260.8-101.8,260.8"/>
	<path class="st0" d="M-27.5,223.9L-27.5,223.9c-16.5-3.5-33.5-5.4-50.9-5.4c-17.5,0-34.5,1.9-51,5.4l-0.1,0c-1.2,0.3-2,1.3-2,2.6
		l0,9.2c0,6.1,0.4,11.8,1,17.2c17.1-3.6,34.6-5.4,52.1-5.4c17.5,0,35,1.8,52,5.4c0.7-5.4,1-11.1,1-17.2l0-9.2
		C-25.4,225.2-26.3,224.2-27.5,223.9 M-39,246.7c-12.8-2.4-27.4-3.2-39.5-3.2h0c-12,0-26.7,0.7-39.5,3.2c-0.5,0.1-0.9-0.3-0.6-0.9
		l8.4-18.5c0.1-0.2,5.5-2.9,5.5-2.9c6.9-1.4,18.3-0.8,26.2,2.1h0c7.9-2.9,19.3-3.6,26.2-2.1c0,0,5.4,2.7,5.5,2.9l8.4,18.5
		C-38.1,246.4-38.5,246.8-39,246.7"/>
</g>
<g>
	<path class="st0" d="M-54.4,227.6l3.5,9.5c-8.2-1.1-15-0.6-25.1,2.7v0.9c9.5-0.4,21.5-0.9,31.3,1.2l-5.3-12.2L-54.4,227.6z"/>
	<path class="st0" d="M-106.1,237.1l3.5-9.5l-4.4,2l-5.3,12.2c9.7-2.1,21.8-1.6,31.3-1.2v-0.9C-91,236.5-97.9,236-106.1,237.1"/>
</g>
<g>
	<path class="st0" d="M7.5,241c0-8.3-0.7-9.2-5.2-9.6l-1.9-0.1c-0.5-0.3-0.3-1.7,0.2-1.9c4.3,0.1,6.9,0.2,10,0.2
		c3,0,5.6-0.1,8.6-0.2c0.5,0.2,0.6,1.6,0.2,1.9l-1.1,0.1c-4.4,0.6-4.6,1.6-4.6,9.6v27.8c0,5.9-0.3,11.1-1.7,14.5
		c-2.5,6-7.8,10.8-14.8,10.8c-0.9,0-3.2-0.1-3.2-1.6c0-1.3,1.1-3.5,2.7-3.5c0.9,0,1.8,0.1,2.8,0.5c1,0.3,2.1,0.5,3.1,0.5
		c1.6,0,2.5-0.9,3-2c1.7-3.5,1.9-14.8,1.9-18.8V241z"/>
</g>
<g>
	<path class="st0" d="M19.2,258.7c0-12.6,9.5-22.3,22.5-22.3c14.6,0,22,10.6,22,21.7c0,12.8-9.7,22.1-22,22.1
		C27.7,280.1,19.2,270.1,19.2,258.7 M57.4,260c0-10.4-4.6-21.7-16.7-21.7c-6.6,0-15.1,4.5-15.1,18.4c0,9.4,4.6,21.5,17,21.5
		C50.2,278.2,57.4,272.5,57.4,260"/>
	<path class="st0" d="M78.1,258.7c-3,0-3.2,0.1-3.2,2v8.9c0,6.6,0.3,7.5,3.9,7.9l1.8,0.2c0.4,0.2,0.3,1.4-0.1,1.6
		c-3.4-0.1-5.6-0.2-8-0.2c-2.7,0-4.9,0.1-7.3,0.2c-0.4-0.2-0.5-1.2-0.1-1.6l1.1-0.2c3.5-0.6,3.7-1.3,3.7-7.9v-22.8
		c0-6.6-0.4-7.7-3.7-8l-1.6-0.1c-0.4-0.3-0.3-1.4,0.1-1.6c3.1,0.1,5.3,0.2,8,0.2c2.5,0,4.6-0.1,7.3-0.2c0.4,0.2,0.5,1.3,0.1,1.6
		l-1.2,0.1c-3.7,0.4-3.8,1.3-3.8,8v7.3c0,2,0.1,2,3.2,2h18.1c3,0,3.2-0.1,3.2-2v-7.3c0-6.6-0.1-7.6-3.9-8l-1.2-0.1
		c-0.4-0.3-0.3-1.4,0.1-1.6c2.9,0.1,5.1,0.2,7.7,0.2c2.5,0,4.6-0.1,7.5-0.2c0.4,0.2,0.5,1.3,0.1,1.6l-1.3,0.1
		c-3.7,0.4-3.8,1.3-3.8,8v22.8c0,6.6,0.1,7.5,3.8,7.9l1.5,0.2c0.4,0.2,0.3,1.4-0.1,1.6c-3-0.1-5.2-0.2-7.7-0.2
		c-2.6,0-4.9,0.1-7.7,0.2c-0.4-0.2-0.5-1.2-0.1-1.6l1.2-0.2c3.9-0.6,3.9-1.3,3.9-7.9v-8.9c0-1.9-0.1-2-3.2-2H78.1z"/>
	<path class="st0" d="M153.1,268.4c0,1.9,0,9.4,0.2,11.1c-0.1,0.4-0.5,0.7-1.2,0.7c-0.8-1.1-2.6-3.3-8.1-9.6l-14.7-16.7
		c-1.7-2-6-7.2-7.3-8.5h-0.1c-0.3,0.8-0.3,2.2-0.3,4.1v13.8c0,3,0.1,11.2,1.1,13.1c0.4,0.7,1.6,1.1,3.2,1.2l2,0.2
		c0.4,0.5,0.3,1.3-0.1,1.6c-2.8-0.1-5.1-0.2-7.4-0.2c-2.7,0-4.4,0.1-6.6,0.2c-0.4-0.3-0.5-1.2-0.1-1.6l1.7-0.2
		c1.5-0.2,2.5-0.6,2.8-1.3c0.9-2.3,0.8-10,0.8-13V245c0-1.8-0.1-3.1-1.4-4.6c-0.9-0.9-2.4-1.3-3.9-1.5l-1.1-0.1
		c-0.4-0.4-0.4-1.3,0.1-1.6c2.7,0.2,6,0.2,7.1,0.2c1,0,2.1-0.1,2.9-0.2c1.3,3.2,8.7,11.6,10.8,13.9l6.1,6.9
		c4.4,4.9,7.5,8.4,10.4,11.5h0.1c0.3-0.3,0.3-1.3,0.3-2.7v-13.5c0-3-0.1-11.2-1.3-13.1c-0.4-0.6-1.4-0.9-3.9-1.3l-1.1-0.1
		c-0.4-0.4-0.4-1.4,0.1-1.6c2.9,0.1,5.1,0.2,7.5,0.2c2.7,0,4.4-0.1,6.5-0.2c0.5,0.3,0.5,1.2,0.1,1.6l-0.9,0.1
		c-2,0.3-3.3,0.8-3.5,1.3c-1.1,2.3-0.9,10.1-0.9,13V268.4z"/>
	<path class="st0" d="M169.8,280.1c-5.3,0-8.7-1.6-9.9-2.3c-0.8-1.4-1.6-5.9-1.7-8.9c0.3-0.4,1.3-0.6,1.5-0.2
		c0.9,3.2,3.5,9.4,10.9,9.4c5.3,0,7.9-3.5,7.9-7.3c0-2.8-0.6-5.9-5.2-8.9l-6-3.9c-3.2-2.1-6.8-5.7-6.8-10.9c0-6,4.7-10.9,12.9-10.9
		c2,0,4.2,0.4,5.9,0.8c0.8,0.3,1.7,0.4,2.2,0.4c0.6,1.5,1.1,5.1,1.1,7.7c-0.2,0.4-1.3,0.6-1.6,0.2c-0.8-3-2.5-7.2-8.6-7.2
		c-6.2,0-7.5,4.1-7.5,7c0,3.7,3,6.3,5.4,7.8l5.1,3.2c4,2.5,7.9,6.1,7.9,12.2C183.3,275.4,178,280.1,169.8,280.1"/>
	<path class="st0" d="M220.8,254.9c-3.6,0-3.7,0.1-3.7,2.4v10.6c0,7.9,0.4,8.9,4.6,9.4l2.2,0.2c0.4,0.3,0.3,1.6-0.2,1.9
		c-4.1-0.1-6.6-0.2-9.5-0.2c-3.2,0-5.8,0.1-8.7,0.2c-0.5-0.2-0.6-1.4-0.1-1.9l1.3-0.2c4.2-0.8,4.4-1.5,4.4-9.4v-27
		c0-7.9-0.5-9.2-4.4-9.4l-2-0.2c-0.5-0.3-0.3-1.7,0.2-1.9c3.7,0.1,6.2,0.2,9.4,0.2c2.9,0,5.5-0.1,8.7-0.2c0.5,0.2,0.6,1.6,0.1,1.9
		l-1.4,0.2c-4.3,0.5-4.5,1.6-4.5,9.4v8.6c0,2.3,0.2,2.4,3.7,2.4h21.5c3.6,0,3.7-0.1,3.7-2.4v-8.6c0-7.9-0.1-9-4.6-9.4l-1.4-0.2
		c-0.5-0.3-0.3-1.7,0.2-1.9c3.4,0.2,6,0.2,9.1,0.2c2.9,0,5.5-0.1,8.8-0.2c0.4,0.2,0.6,1.6,0.1,1.9l-1.6,0.2
		c-4.3,0.5-4.5,1.6-4.5,9.4v27c0,7.9,0.2,8.8,4.5,9.4l1.8,0.2c0.5,0.3,0.3,1.6-0.2,1.9c-3.6-0.1-6.1-0.2-9.1-0.2
		c-3.1,0-5.8,0.1-9.1,0.2c-0.5-0.2-0.6-1.4-0.2-1.9l1.4-0.2c4.6-0.8,4.6-1.5,4.6-9.4v-10.6c0-2.2-0.1-2.4-3.7-2.4H220.8z"/>
	<path class="st0" d="M258,258.7c0-12.6,9.5-22.3,22.5-22.3c14.6,0,22,10.6,22,21.7c0,12.8-9.7,22.1-22,22.1
		C266.5,280.1,258,270.1,258,258.7 M296.1,260c0-10.4-4.6-21.7-16.7-21.7c-6.6,0-15.1,4.5-15.1,18.4c0,9.4,4.6,21.5,17,21.5
		C288.9,278.2,296.1,272.5,296.1,260"/>
	<path class="st0" d="M313.9,269.6c0,6.6,0.1,7.5,4.2,7.9l1.7,0.2c0.4,0.3,0.3,1.4-0.1,1.6c-3.6-0.1-5.7-0.2-8.2-0.2
		c-2.7,0-4.9,0.1-7.7,0.2c-0.4-0.2-0.5-1.2-0.1-1.6l1.3-0.2c3.7-0.5,3.8-1.3,3.8-7.9v-23.3c0-5.4-0.1-6.5-3-6.8l-2.3-0.3
		c-0.4-0.4-0.4-1.3,0.1-1.6c3.4-0.4,7.3-0.5,12.5-0.5c5.3,0,9.2,0.7,12.2,2.5c2.9,1.8,5.1,5.1,5.1,9.5c0,5.8-3.6,8.7-6.3,10.1
		c-2.8,1.3-6.1,1.9-8.7,1.9c-0.4-0.2-0.4-1.1-0.1-1.3c6.8-1.3,9.3-5.1,9.3-10.6c0-6.1-3.6-10.1-10.2-10.1c-3.4,0-3.4,0.2-3.4,2.3
		V269.6z"/>
	<path class="st0" d="M340.3,246.9c0-6.6-0.1-7.7-3.8-8l-1.6-0.1c-0.4-0.3-0.2-1.4,0.1-1.6c3.1,0.1,5.1,0.2,8,0.2
		c2.5,0,4.6-0.1,7.3-0.2c0.4,0.2,0.5,1.3,0.1,1.6l-1.2,0.1c-3.7,0.4-3.8,1.3-3.8,8v7.3c0,1.2,0.1,2.4,0.8,2.4c0.6,0,1.3-0.4,1.8-0.7
		c0.9-0.8,2.5-2.4,3.2-3l6.8-6.8c1.2-1.1,4.3-4.4,4.9-5.3c0.3-0.4,0.4-0.8,0.4-1c0-0.2-0.3-0.4-1.1-0.6l-1.7-0.4
		c-0.4-0.4-0.4-1.3,0.1-1.6c2.2,0.1,4.7,0.2,7,0.2c2.2,0,4.4-0.1,6.3-0.2c0.4,0.3,0.5,1.2,0.1,1.6c-1.6,0.1-4.1,0.8-5.9,1.8
		c-1.8,1-5.3,4-8.9,7.3l-5.7,5.4c-0.9,0.9-1.5,1.5-1.5,2c0,0.4,0.4,1,1.2,2c6,6.9,10.9,12.6,15.8,17.8c1.5,1.5,2.7,2.3,4.8,2.6
		l1.2,0.2c0.4,0.3,0.3,1.4-0.1,1.6c-1.6-0.1-3.4-0.2-6.4-0.2c-2.6,0-4.8,0.1-7.7,0.2c-0.4-0.1-0.6-1.2-0.2-1.6l1.5-0.3
		c0.9-0.1,1.5-0.3,1.5-0.6c0-0.4-0.4-0.9-0.9-1.5c-1.2-1.5-2.8-3.2-5.2-5.9l-5.1-5.7c-3.6-4-4.6-5.3-6.1-5.3c-1,0-1.1,0.8-1.1,3v8.2
		c0,6.6,0.1,7.5,3.7,7.9l1.7,0.2c0.4,0.3,0.3,1.4-0.1,1.6c-3.1-0.1-5.3-0.2-7.7-0.2c-2.6,0-4.7,0.1-7.3,0.2
		c-0.4-0.2-0.5-1.1-0.1-1.6l1.3-0.2c3.4-0.5,3.5-1.3,3.5-7.9V246.9z"/>
	<path class="st0" d="M383.7,247c0-6.7-0.1-7.8-3.9-8.1l-1.6-0.1c-0.4-0.3-0.3-1.4,0.1-1.6c3.2,0.1,5.3,0.2,8,0.2
		c2.5,0,4.7-0.1,7.8-0.2c0.4,0.2,0.5,1.3,0.1,1.6l-1.6,0.1c-3.7,0.3-3.9,1.4-3.9,8.1v22.5c0,6.7,0.1,7.6,3.9,8l1.6,0.2
		c0.4,0.3,0.3,1.4-0.1,1.6c-3.2-0.1-5.3-0.2-7.8-0.2c-2.7,0-4.6,0.1-7.7,0.2c-0.4-0.2-0.5-1.2-0.1-1.6l1.3-0.2
		c3.7-0.4,3.9-1.3,3.9-8V247z"/>
	<path class="st0" d="M438.4,268.4c0,1.9,0,9.4,0.2,11.1c-0.1,0.4-0.5,0.7-1.2,0.7c-0.8-1.1-2.6-3.3-8.1-9.6l-14.7-16.7
		c-1.7-2-6-7.2-7.3-8.5h-0.1c-0.3,0.8-0.3,2.2-0.3,4.1v13.8c0,3,0.1,11.2,1.1,13.1c0.4,0.7,1.6,1.1,3.2,1.2l2,0.2
		c0.4,0.5,0.3,1.3-0.1,1.6c-2.8-0.1-5.1-0.2-7.4-0.2c-2.7,0-4.4,0.1-6.6,0.2c-0.4-0.3-0.5-1.2-0.1-1.6l1.7-0.2
		c1.5-0.2,2.5-0.6,2.8-1.3c0.9-2.3,0.8-10,0.8-13V245c0-1.8-0.1-3.1-1.4-4.6c-0.9-0.9-2.4-1.3-3.9-1.5l-1.1-0.1
		c-0.4-0.4-0.4-1.3,0.1-1.6c2.7,0.2,6,0.2,7.1,0.2c1,0,2.1-0.1,2.9-0.2c1.3,3.2,8.7,11.6,10.8,13.9l6.1,6.9
		c4.4,4.9,7.5,8.4,10.4,11.5h0.1c0.3-0.3,0.3-1.3,0.3-2.7v-13.5c0-3-0.1-11.2-1.3-13.1c-0.4-0.6-1.4-0.9-3.9-1.3l-1.1-0.1
		c-0.4-0.4-0.4-1.4,0.1-1.6c2.9,0.1,5.1,0.2,7.5,0.2c2.7,0,4.4-0.1,6.5-0.2c0.5,0.3,0.5,1.2,0.1,1.6l-0.9,0.1
		c-2,0.3-3.3,0.8-3.5,1.3c-1.1,2.3-0.9,10.1-0.9,13V268.4z"/>
	<path class="st0" d="M455,280.1c-5.3,0-8.7-1.6-9.9-2.3c-0.8-1.4-1.6-5.9-1.7-8.9c0.3-0.4,1.3-0.6,1.5-0.2c1,3.2,3.5,9.4,10.9,9.4
		c5.3,0,7.9-3.5,7.9-7.3c0-2.8-0.6-5.9-5.2-8.9l-6-3.9c-3.2-2.1-6.8-5.7-6.8-10.9c0-6,4.7-10.9,12.9-10.9c2,0,4.2,0.4,5.9,0.8
		c0.8,0.3,1.7,0.4,2.2,0.4c0.6,1.5,1.1,5.1,1.1,7.7c-0.3,0.4-1.3,0.6-1.6,0.2c-0.8-3-2.5-7.2-8.6-7.2c-6.2,0-7.5,4.1-7.5,7
		c0,3.7,3,6.3,5.4,7.8l5.1,3.2c4,2.5,7.9,6.1,7.9,12.2C468.5,275.4,463.3,280.1,455,280.1"/>
</g>
</svg>
